<svg width="16" height="16" viewBox="0 0 16 16" fill="none" xmlns="http://www.w3.org/2000/svg">
<path d="M7.99999 1.18791C7.29818 1.18791 5.92274 4.63478 5.35499 5.04734C4.78718 5.45984 1.08393 5.70281 0.867056 6.37028C0.650181 7.03772 3.50337 9.411 3.72024 10.0785C3.93712 10.7459 3.02381 14.343 3.59162 14.7555C4.15943 15.168 7.29818 13.1879 7.99999 13.1879C8.70181 13.1879 11.8406 15.168 12.4084 14.7555C12.9762 14.343 12.0629 10.7459 12.2797 10.0785C12.4966 9.41097 15.3498 7.03772 15.1329 6.37025C14.9161 5.70275 11.2128 5.45981 10.645 5.04728C10.0773 4.63478 8.70184 1.18784 8.00002 1.18784L7.99999 1.18791Z" fill="#C8C8C8"/>
</svg>
