<svg width="16" height="16" viewBox="0 0 16 16" fill="none" xmlns="http://www.w3.org/2000/svg">
<path d="M8.50626 0.90375L10.1888 4.74125C10.2521 4.88565 10.353 5.01041 10.4809 5.10254C10.6089 5.19466 10.7592 5.25076 10.9163 5.265L15.015 5.6325C15.4788 5.7 15.6638 6.26875 15.3275 6.59625L12.24 9.19C11.99 9.4 11.8763 9.73 11.945 10.0487L12.8425 14.25C12.9213 14.7113 12.4375 15.0638 12.0225 14.845L8.44501 12.75C8.3101 12.6708 8.15647 12.629 8.00001 12.629C7.84355 12.629 7.68993 12.6708 7.55501 12.75L3.97751 14.8438C3.56376 15.0612 3.07876 14.71 3.15751 14.2487L4.05501 10.0475C4.12251 9.72875 4.01001 9.39875 3.76001 9.18875L0.671262 6.5975C0.336262 6.27125 0.521262 5.70125 0.983762 5.63375L5.08251 5.26625C5.23954 5.25201 5.38987 5.19591 5.51783 5.10379C5.64579 5.01166 5.74669 4.8869 5.81001 4.7425L7.49251 0.905C7.70126 0.485 8.29876 0.485 8.50626 0.90375Z" fill="#FDD835"/>
<path d="M8.38374 4.97125L8.09874 2.14375C8.08749 1.98625 8.05499 1.71625 8.30749 1.71625C8.50749 1.71625 8.61624 2.1325 8.61624 2.1325L9.47124 4.4025C9.79374 5.26625 9.66124 5.5625 9.34999 5.7375C8.99249 5.9375 8.46499 5.78125 8.38374 4.97125Z" fill="#FFFF8D"/>
<path d="M11.91 8.93875L14.3625 7.025C14.4838 6.92375 14.7025 6.7625 14.5275 6.57875C14.3888 6.43375 14.0138 6.6425 14.0138 6.6425L11.8675 7.48125C11.2275 7.7025 10.8025 8.03 10.765 8.4425C10.7163 8.9925 11.21 9.41625 11.91 8.93875Z" fill="#F4B400"/>
</svg>
